<?xml version="1.0" standalone="no"?>
<!DOCTYPE svg PUBLIC "-//W3C//DTD SVG 20010904//EN"
 "http://www.w3.org/TR/2001/REC-SVG-20010904/DTD/svg10.dtd">
<svg version="1.0" xmlns="http://www.w3.org/2000/svg"
 width="1500.000000pt" height="1500.000000pt" viewBox="0 0 1500.000000 1500.000000"
 preserveAspectRatio="xMidYMid meet">
<metadata>
Created by potrace 1.14, written by Peter Selinger 2001-2017
</metadata>
<g transform="translate(0.000000,1500.000000) scale(0.100000,-0.100000)"
fill="#000000" stroke="none">
<path d="M7005 14989 c-1824 -126 -3511 -889 -4801 -2174 -1064 -1060 -1779
-2398 -2068 -3870 -97 -496 -136 -910 -136 -1445 0 -332 8 -496 36 -770 122
-1204 536 -2361 1209 -3375 917 -1382 2268 -2425 3832 -2958 624 -213 1268
-341 1953 -387 187 -13 753 -13 940 0 1342 91 2569 504 3675 1235 1377 911
2426 2269 2958 3832 213 624 341 1272 387 1951 13 195 13 752 0 942 -91 1341
-506 2575 -1235 3675 -917 1382 -2268 2425 -3832 2958 -624 213 -1268 341
-1953 387 -170 12 -792 11 -965 -1z m718 -6851 c373 -2290 680 -4180 684
-4201 l6 -37 -657 0 c-388 0 -656 4 -656 9 0 18 -230 1616 -236 1641 -4 14 -9
19 -11 13 -4 -10 -163 -13 -752 -13 l-747 0 -120 -822 -120 -823 -608 -3 -609
-2 6 27 c3 16 310 1900 682 4188 372 2288 678 4166 680 4173 4 9 191 12 892
12 l888 0 678 -4162z m2247 562 l0 -3600 1085 0 1085 0 0 -600 0 -600 -1740 0
-1740 0 0 4200 0 4200 655 0 655 0 0 -3600z"/>
<path d="M6085 10828 c-2 -7 -130 -929 -285 -2048 -155 -1119 -284 -2050 -287
-2067 l-5 -33 601 0 601 0 -5 23 c-5 21 -585 4118 -585 4131 0 12 -31 6 -35
-6z"/>
</g>
</svg>
